<?xml version="1.0" standalone="no"?>
<!DOCTYPE svg PUBLIC "-//W3C//DTD SVG 20010904//EN"
 "http://www.w3.org/TR/2001/REC-SVG-20010904/DTD/svg10.dtd">
<svg version="1.0" xmlns="http://www.w3.org/2000/svg"
 width="700.000000pt" height="700.000000pt" viewBox="0 0 700.000000 700.000000"
 preserveAspectRatio="xMidYMid meet">
<metadata>
Created by potrace 1.11, written by Peter Selinger 2001-2013
</metadata>
<g transform="translate(0.000000,700.000000) scale(0.100000,-0.100000)"
fill="#000000" stroke="none">
<path d="M889 6855 c-26 -14 -115 -133 -211 -280 -58 -90 -168 -281 -168 -292
0 -5 -5 -14 -11 -20 -17 -17 -146 -296 -196 -423 -129 -329 -238 -758 -268
-1055 -3 -33 -8 -69 -10 -80 -26 -126 -26 -785 0 -946 2 -13 7 -51 11 -84 9
-78 9 -82 18 -135 4 -25 10 -58 12 -75 9 -57 44 -221 70 -319 14 -55 27 -107
29 -115 2 -9 13 -47 25 -86 179 -571 430 -1046 785 -1485 33 -41 65 -80 70
-86 189 -211 262 -284 403 -407 545 -472 1167 -741 1907 -823 144 -17 680 -9
784 11 9 1 39 6 66 9 178 24 448 90 636 155 692 239 1315 708 1691 1271 207
312 376 732 424 1058 3 20 7 44 9 52 4 15 8 51 25 205 8 78 6 490 -3 530 -3
11 -8 45 -12 75 -23 186 -63 359 -126 544 -168 492 -473 933 -869 1253 -69 56
-221 159 -280 192 -160 86 -267 134 -408 181 -137 46 -261 75 -397 94 -22 3
-60 8 -85 12 -68 10 -368 12 -441 3 -35 -4 -91 -11 -124 -14 -33 -4 -62 -9
-65 -10 -3 -2 -26 -6 -50 -10 -81 -11 -273 -67 -390 -113 -501 -198 -913 -561
-1124 -992 -44 -89 -94 -208 -103 -245 -1 -5 -16 -59 -32 -120 -16 -60 -32
-135 -36 -165 -4 -30 -9 -64 -12 -75 -9 -43 -10 -325 -1 -405 58 -532 343
-1019 762 -1301 175 -118 407 -208 611 -236 77 -10 352 -10 430 1 200 27 447
122 617 238 333 225 535 545 575 913 62 567 -281 1114 -786 1254 -101 28 -169
36 -294 34 -409 -6 -774 -265 -886 -628 -81 -260 -22 -559 148 -762 186 -222
428 -303 716 -239 107 23 283 135 321 202 20 37 15 106 -11 134 -24 26 -79 43
-115 35 -17 -4 -45 -20 -63 -37 -75 -69 -189 -118 -286 -122 -213 -9 -386 115
-476 341 -83 207 -26 462 141 627 88 87 217 161 333 191 142 36 256 36 402 0
277 -68 513 -325 600 -651 29 -107 35 -313 14 -421 -49 -244 -166 -438 -361
-601 -159 -133 -403 -246 -581 -268 -17 -2 -52 -8 -76 -13 -50 -9 -257 -7
-327 3 -56 8 -235 54 -258 65 -9 5 -42 19 -72 32 -283 121 -547 388 -696 703
-132 282 -181 572 -147 874 52 465 289 860 693 1158 218 161 446 270 695 333
645 163 1325 10 1820 -409 498 -421 826 -1061 881 -1715 65 -774 -202 -1510
-746 -2054 -460 -459 -1035 -768 -1665 -895 -225 -45 -387 -60 -645 -60 -265
0 -443 17 -670 66 -150 32 -275 66 -395 108 -476 168 -898 441 -1253 811 -364
381 -654 833 -852 1330 -80 199 -152 435 -199 649 -22 100 -25 116 -41 220 -6
36 -13 75 -15 86 -2 12 -6 48 -10 80 -4 33 -8 70 -10 83 -18 113 -25 551 -12
726 40 532 169 1023 391 1490 102 213 199 377 380 640 44 63 48 73 43 113 -6
59 -40 93 -98 98 -27 3 -54 -1 -70 -11z"/>
</g>
</svg>
